<?xml version="1.0" encoding="UTF-8"?>
<svg width="700pt" height="700pt" version="1.1" viewBox="0 0 700 700" xmlns="http://www.w3.org/2000/svg" xmlns:xlink="http://www.w3.org/1999/xlink">
 <g>
  <path d="m345.91 155.51c-0.64062 0.42969-1.2578 0.89844-1.8477 1.3984-2.8008 2.2969-5.6016 4.7031-8.0625 7.2227l-0.50391 0.55859c-2.1836 2.5742-4.1992 5.2656-6.1602 8.0078l-0.33594 0.50391c-0.89453 1.5664-1.7344 3.1367-2.5742 4.8711l-0.44922 0.95312v0.003906c-0.73437 1.3867-1.3516 2.8281-1.8477 4.3125-0.55859 1.6797-1.0625 3.3594-1.457 5.0391l-0.61719 2.5195c-0.15625 0.81641-0.26953 1.6406-0.33594 2.4648v0.61719c-0.47266 3.4922-0.47266 7.0352 0 10.527v0.95312c0.16797 1.3203 0.41016 2.6289 0.73047 3.918v0.67188c0.33594 1.1758 0.67188 2.3516 0.95312 3.0781l-0.003906 0.003907c0.76172 2.332 1.7539 4.5859 2.9688 6.7188l0.61719 1.1211c1.1797 1.9531 2.4883 3.8203 3.918 5.5977l0.44922 0.50391 0.55859 0.61719c1.1445 1.2656 2.3594 2.4648 3.6406 3.5859l0.55859 0.44922 0.003906-0.003907c1.0195 0.85938 2.082 1.6641 3.1914 2.4102 1.7695 1.207 3.6445 2.2578 5.5977 3.1367l0.67188 0.28125v-0.003907c1.0469 0.45703 2.1367 0.81641 3.25 1.0664h0.28125c2.2812 0.47266 4.6562-0.082032 6.4961-1.5117 1.7383-1.3633 2.8164-3.3984 2.9648-5.6016v-2.2383-2.6328l0.44922-4.5352 0.61719-3.4727c0.39063-1.7773 0.97266-3.5039 1.7344-5.1523 0.28125-0.50391 0.55859-1.0078 0.78516-1.457l0.39062-0.50391 0.61719-0.78516 1.0625-1.0625 1.457-1.0625h0.33594l1.9023-1.2305 0.003906-0.003906c0.90234-0.47656 1.7812-1 2.6289-1.5664 1.2148-0.47656 2.3789-1.0781 3.4727-1.793l1.9609-1.0078 3.1914-1.6797 6.4961-3.5859c6-3.7148 11.387-8.3438 15.961-13.719 4.832-5.6602 8.5195-12.199 10.863-19.262 2.1758-6.5078 3.0898-13.371 2.6875-20.219-0.33594-5.7695-1.625-11.445-3.8086-16.801-2.9805-7.3711-7.6602-13.934-13.664-19.148-1.5391-1.3477-3.1875-2.5625-4.9258-3.6406l-0.72656-0.44922h-0.003906c-0.89063-0.57812-1.8281-1.082-2.7969-1.5117-2.1719-0.85938-4.6133-0.71875-6.6641 0.39062-2.1016 1.1641-3.5469 3.2305-3.9219 5.6016l-0.39062 2.2969c0 0.55859 0 1.2891-0.39062 2.1289l-0.50391 2.5195h-0.003907c-0.95703 4.9258-2.2852 9.7734-3.9766 14.504-0.80078 2.2188-1.8125 4.3555-3.0234 6.3828-1.0156 1.6602-2.2188 3.2031-3.582 4.5898-1.418 1.4297-2.9336 2.7617-4.5352 3.9766-1.793 1.3438-3.8086 2.7422-6.0469 4.1445l-3.418 1.6797-0.89453 0.55859-1.3984 0.89453-2.9688 2.0156zm17.246 55.16m-13.156-153.89c1.9219 9.2188 2.0742 18.723 0.44922 28-1.8555 10.137-5.6602 19.816-11.203 28.504-5.2109 8.3086-11.691 15.754-19.207 22.062l-8.2891 6.3281-4.0898 3.0234-2.7422 1.9609h0.003906c-1.3359 1.2188-2.8008 2.293-4.3711 3.1914-1.1406 1.0195-2.3359 1.9727-3.582 2.8555-0.72656 0.72656-1.5664 1.457-2.4062 2.1289l-0.61719 0.50391c-0.54687 0.62891-1.125 1.2266-1.7383 1.793 0 0-0.33594 0.33594-0.50391 0.55859l-1.457 1.8477c-0.21484 0.46094-0.46094 0.91016-0.72656 1.3438l-0.44922 0.78516v0.55859c0 0.72656-0.44922 1.3984-0.78516 2.1836h0.003906c-0.83984 2.7539-1.3672 5.5898-1.5703 8.457v5.1523l-0.22266 6.7773c0 1.625 0 3.0234 0.33594 4.0312l0.39062 3.0781c0.28906 2.3438-0.44141 4.6992-2.0039 6.4648s-3.8125 2.7773-6.1719 2.7773h-0.61719 0.003906c-1.457-0.14062-2.9023-0.40234-4.3125-0.78516h-0.83984c-2.8906-0.76563-5.7031-1.7969-8.4023-3.0781-1.6875-0.80859-3.332-1.7031-4.9258-2.6875l-0.78516-0.44922c-1.9453-1.2305-3.8164-2.5742-5.6016-4.0312l-1.0078-0.78516-0.50391-0.44922c-2.2695-2.0977-4.4023-4.3438-6.3828-6.7188l-1.0078-1.3438c-2.0273-2.6016-3.7891-5.3945-5.2656-8.3438-0.55859-1.0625-1.2305-2.5195-1.9023-4.0898l-0.39062-0.95312v0.003906c-0.66016-1.6484-1.2188-3.3281-1.6797-5.043l-0.39062-1.3984h-0.003906c-1.3359-4.625-2.0508-9.4102-2.1289-14.223v-1.1758c-0.054688-1.0664-0.054688-2.1289 0-3.1953l0.33594-3.5859c0-2.4062 0.55859-4.8164 1.0078-7.2812v0.003907c0.35938-2.0742 0.88281-4.1133 1.5703-6.1016l0.44922-1.457c0.78516-2.4648 1.625-4.8164 2.5195-7.168l0.28125-0.61719c2.0703-4.1992 4.4258-8.3984 6.8867-12.434l0.44922-0.67188c3.0234-4.0312 6.3281-7.9531 9.7422-11.703 0.66406-0.76953 1.375-1.5 2.1289-2.1836l2.0703-1.9609c1.1758-1.1211 2.4648-2.2383 3.7539-3.4141l2.2383-2.0156 0.50391-0.44922 4.8164-3.8633c2.9688-2.5195 5.6016-4.9844 7.9531-7.3359 2.1172-2.1562 4.082-4.457 5.8789-6.8867 1.7656-2.4375 3.25-5.0703 4.4219-7.8398 1.3672-3.2734 2.418-6.668 3.1367-10.137 1.4414-7.1641 2.3398-14.43 2.6875-21.73v-3.6953-3.3047-3.1914c0.058594-2.5703 1.3047-4.9727 3.3789-6.4961 2.0703-1.5234 4.7344-2 7.207-1.2852 1.3594 0.35547 2.6914 0.82422 3.9766 1.3984l1.0625 0.44922c2.543 1.1133 4.9961 2.4219 7.3359 3.918 9.1953 5.8945 16.871 13.879 22.402 23.297 4.1719 6.8281 7.1797 14.305 8.9023 22.121zm242.54 317.97c6.8945-27.711 0.64453-57.055-16.941-79.551s-44.551-35.645-73.105-35.645h-373.41c-6.6992-0.007813-13.105 2.7422-17.715 7.6055-4.6094 4.8633-7.0117 11.41-6.6445 18.102 2.9375 44.488 10.559 88.543 22.738 131.43 9.1523 32.184 27.18 61.137 52.023 83.551h-32.145c-9.6719 0-18.613 5.1641-23.449 13.539-4.8359 8.3789-4.8359 18.699 0 27.078 4.8359 8.375 13.777 13.535 23.449 13.535h304.53c9.6758 0 18.613-5.1602 23.449-13.535 4.8359-8.3789 4.8359-18.699 0-27.078-4.8359-8.375-13.773-13.539-23.449-13.539h-32.199c17.188-15.516 31.188-34.23 41.215-55.102h41.609c20.711 0 40.828-6.9297 57.148-19.688 16.316-12.754 27.898-30.605 32.898-50.703zm-54.543-13.555c-1.9141 7.9766-6.457 15.078-12.895 20.156-6.4414 5.082-14.406 7.8438-22.609 7.8438h-23.688c5.7031-24.129 10.023-48.566 12.934-73.191h10.754c11.262-0.007812 21.895 5.1758 28.832 14.047 6.9336 8.8711 9.3945 20.441 6.6719 31.371z"/>
 </g>
</svg>
